<?xml version="1.0" standalone="no"?>
<!DOCTYPE svg PUBLIC "-//W3C//DTD SVG 20010904//EN"
 "http://www.w3.org/TR/2001/REC-SVG-20010904/DTD/svg10.dtd">
<svg version="1.0" xmlns="http://www.w3.org/2000/svg"
 width="730.000000pt" height="730.000000pt" viewBox="0 0 730.000000 730.000000"
 preserveAspectRatio="xMidYMid meet">
<metadata>
Created by potrace 1.11, written by Peter Selinger 2001-2013
</metadata>
<g transform="translate(0.000000,730.000000) scale(0.100000,-0.100000)"
fill="#000000" stroke="none">
<path d="M4931 7221 c-16 -76 -58 -157 -95 -186 -18 -14 -38 -25 -44 -25 -24
0 -224 -94 -314 -147 -289 -170 -484 -398 -533 -622 -3 -11 -7 -31 -10 -43 -3
-13 -7 -54 -10 -93 -3 -38 -7 -83 -9 -100 -11 -94 -19 -144 -27 -180 -5 -22
-12 -50 -14 -62 -3 -12 -10 -35 -17 -50 -6 -16 -12 -30 -12 -33 -4 -19 -43
-70 -53 -70 -20 0 -27 22 -29 86 0 42 -8 76 -24 110 -49 101 -9 198 110 265
22 13 40 26 40 29 0 14 -79 43 -132 47 -129 12 -214 -58 -284 -235 -6 -14 -6
-62 -2 -116 10 -107 0 -142 -53 -194 -31 -30 -59 -42 -59 -24 0 12 -72 83
-105 104 -16 10 -44 18 -61 18 -28 0 -31 4 -47 58 -48 164 -47 236 6 316 62
95 81 152 81 246 0 114 -7 128 -135 267 -22 24 -41 43 -44 43 -5 0 2 -121 10
-159 5 -25 -28 -115 -52 -141 -11 -12 -13 -12 -13 5 -1 20 -27 62 -34 54 -2
-2 -14 -24 -28 -49 -14 -25 -51 -83 -83 -130 -63 -92 -113 -193 -150 -305 -81
-241 -76 -559 11 -711 20 -36 15 -65 -20 -113 l-26 -34 -30 66 c-39 86 -53
151 -48 232 3 63 3 64 -14 43 -34 -44 -79 -169 -85 -234 -4 -51 -1 -77 15
-122 32 -87 30 -107 -16 -203 -39 -79 -72 -161 -71 -175 0 -3 -2 -8 -4 -11 -5
-5 -40 102 -76 232 -18 68 -19 69 -30 42 -6 -16 -11 -34 -11 -41 0 -7 -3 -16
-7 -20 -5 -4 -8 -11 -9 -14 0 -4 -8 -41 -17 -82 -28 -127 -29 -139 -33 -355
-3 -194 -5 -210 -21 -207 -51 7 -90 1 -149 -24 -47 -20 -68 -24 -76 -16 -11
11 -13 85 -9 247 4 130 -20 220 -87 325 -51 80 -114 136 -274 243 -79 53 -161
113 -184 134 -43 40 -115 135 -127 167 -14 35 -28 -8 -28 -81 0 -18 -2 -33 -4
-33 -7 0 -61 109 -101 206 -63 153 -104 314 -96 379 1 11 4 64 6 117 6 184
-47 329 -153 420 -33 28 -457 248 -478 248 -4 0 7 -12 24 -27 131 -118 236
-216 279 -259 91 -93 101 -185 39 -352 -45 -117 -51 -190 -25 -266 61 -177
261 -424 430 -532 86 -54 87 -56 105 -114 29 -97 92 -198 171 -278 65 -65 74
-79 85 -130 7 -31 18 -69 26 -84 7 -16 12 -28 10 -28 -2 0 -26 20 -53 45 -27
25 -54 45 -60 45 -38 0 -109 116 -164 268 -13 34 -26 62 -29 62 -8 0 -36 -52
-51 -95 -16 -43 -13 -160 5 -229 9 -32 13 -61 10 -64 -3 -3 -5 0 -5 7 0 20
-75 123 -122 168 -85 81 -189 110 -263 71 l-30 -16 34 -19 c78 -42 138 -115
162 -195 5 -18 11 -71 14 -118 7 -127 31 -227 71 -290 46 -74 159 -169 244
-205 25 -10 48 -21 52 -25 8 -6 -45 -114 -70 -142 -24 -28 -60 -23 -68 10 -25
100 -106 212 -181 247 -42 20 -106 37 -101 27 2 -4 19 -36 38 -72 19 -36 34
-67 35 -70 0 -3 9 -30 20 -60 12 -34 19 -83 19 -130 1 -68 -3 -82 -37 -145
-36 -68 -89 -135 -107 -135 -5 0 -12 4 -15 10 -9 15 -85 33 -136 32 -53 -1
-101 -19 -144 -55 l-30 -25 40 -7 c56 -9 123 -35 128 -49 2 -6 2 -27 1 -46
-11 -103 -2 -262 17 -333 6 -23 13 -50 15 -61 9 -50 69 -154 117 -203 70 -72
182 -157 238 -182 51 -23 165 -122 174 -152 9 -28 21 -23 39 16 9 19 18 35 19
35 1 0 3 -42 3 -93 2 -97 19 -157 63 -213 l19 -24 22 37 c66 110 67 294 2 367
-16 18 -16 19 8 6 14 -7 32 -18 40 -25 23 -17 160 -72 200 -79 98 -17 120 -19
175 -19 57 0 108 6 165 18 23 5 53 9 149 21 80 9 171 15 171 11 0 -2 -9 -25
-20 -49 -11 -25 -22 -63 -26 -84 -3 -21 -8 -41 -10 -43 -6 -6 -53 -10 -124
-11 -115 -2 -155 -27 -164 -103 -3 -22 -19 -55 -39 -80 -45 -58 -59 -88 -62
-139 -3 -54 19 -99 79 -157 53 -52 52 -57 -34 -141 -94 -92 -284 -209 -470
-290 -41 -18 -93 -40 -115 -50 -22 -9 -62 -25 -90 -35 -27 -10 -56 -23 -62
-28 -7 -5 -13 -7 -13 -4 0 4 -21 -3 -47 -14 -27 -12 -55 -22 -63 -24 -59 -15
-195 -65 -193 -72 2 -9 174 -46 258 -56 214 -26 479 -26 620 -1 11 2 39 6 61
8 l42 5 22 -55 c64 -157 224 -318 388 -391 31 -14 71 -31 87 -38 17 -8 46 -33
65 -57 36 -45 124 -134 176 -179 130 -112 358 -224 527 -259 94 -19 251 -14
316 12 14 5 34 11 43 13 46 10 227 112 313 177 6 4 30 24 55 43 25 19 50 38
55 43 33 24 121 99 171 147 53 49 64 55 104 56 229 4 414 128 470 315 l12 42
37 -10 c129 -36 338 -42 475 -13 142 30 275 96 355 176 l35 34 -55 7 c-155 20
-175 23 -309 50 -125 25 -277 71 -342 105 -40 21 -48 30 -53 59 -3 19 -8 51
-11 72 -3 20 -17 71 -31 112 -22 67 -24 81 -14 125 6 28 26 80 45 115 35 70
50 113 49 145 -1 14 12 6 51 -35 124 -131 257 -234 318 -245 10 -2 46 -24 80
-48 126 -90 245 -137 353 -141 99 -4 147 16 222 91 66 66 70 77 77 200 3 46 8
56 49 97 73 73 89 156 50 263 -27 76 -56 121 -192 288 -128 158 -215 256 -323
366 l-28 27 29 64 c35 79 77 201 86 248 3 19 8 46 10 60 4 24 5 63 2 205 -2
124 8 171 71 340 22 61 46 135 53 167 l12 56 65 22 c36 12 70 26 76 31 6 5 38
27 72 48 126 79 199 219 234 443 19 115 4 382 -23 433 -28 53 -13 283 28 415
51 166 65 215 65 224 0 26 -264 -269 -337 -377 -113 -168 -141 -344 -96 -602
10 -57 11 -197 2 -230 -6 -20 -12 -45 -14 -54 -2 -9 -13 -43 -25 -76 -13 -33
-27 -71 -32 -84 -5 -13 -11 -22 -13 -19 -4 4 -32 107 -40 145 -28 147 -19 390
17 482 15 38 20 292 7 348 -6 27 -12 56 -14 66 -2 10 -13 33 -23 50 -26 42
-33 75 -47 217 -4 48 -32 135 -58 185 -9 17 -28 62 -42 100 -29 80 -87 154
-125 158 -23 2 -24 -1 -26 -51 -1 -29 -4 -55 -7 -59 -3 -3 -39 -7 -79 -8 -202
-9 -371 -148 -474 -389 -36 -84 -86 -142 -187 -218 -72 -53 -107 -70 -107 -50
0 8 34 47 113 132 110 118 217 290 217 350 1 14 1 57 0 95 0 39 3 82 5 98 3
15 7 38 9 52 7 41 36 135 41 135 3 0 5 -12 4 -27 -3 -37 26 -143 51 -192 23
-46 44 -61 74 -53 32 8 42 19 82 90 25 44 76 104 158 186 96 96 128 135 154
189 45 94 64 168 67 272 3 78 0 101 -24 170 -33 95 -87 209 -107 226 -8 6 -14
16 -14 21 0 5 -8 21 -19 36 -10 15 -42 64 -71 110 -29 45 -54 81 -56 80 -1 -2
1 -23 6 -48 4 -25 11 -65 14 -90 3 -25 9 -56 12 -70 10 -45 12 -214 2 -245 -5
-16 -11 -41 -14 -54 -15 -72 -97 -204 -178 -286 -34 -34 -86 -115 -105 -162
-14 -34 -22 -39 -86 -49 -89 -14 -249 -129 -270 -194 -7 -23 -28 -26 -44 -6
-8 10 -9 21 -3 33 10 20 47 173 58 243 11 68 12 198 1 254 -10 59 -50 131 -84
153 l-24 16 43 29 c24 16 77 45 118 64 178 85 270 181 314 329 16 53 15 160
-3 222 -18 65 -104 143 -156 143 -8 0 -17 -19 -24 -49z m-383 -911 c-16 -63
-39 -135 -50 -160 l-20 -45 -13 29 c-16 39 -9 109 17 160 22 44 88 139 93 134
2 -2 -10 -55 -27 -118z m-1600 -469 c25 -54 66 -101 127 -146 22 -17 49 -38
59 -47 11 -10 23 -18 28 -18 15 0 29 -41 35 -100 5 -54 2 -64 -21 -95 -14 -18
-26 -38 -26 -43 0 -6 -3 -12 -7 -14 -15 -6 -55 -100 -57 -129 -1 -34 -4 -34
-32 -11 -18 15 -22 33 -27 117 -10 153 -36 277 -80 377 -13 29 -24 73 -26 98
-2 25 -5 48 -8 52 -2 5 -1 8 4 8 4 -1 18 -23 31 -49z m2516 -308 c-8 -32 -52
-99 -84 -128 -12 -11 -33 -44 -47 -75 -29 -63 -40 -54 -24 21 12 56 57 127
111 176 43 40 52 41 44 6z m87 -375 c-19 -54 -69 -148 -78 -148 -3 0 -2 17 2
38 7 41 71 162 85 162 5 0 1 -24 -9 -52z m-236 -315 c-7 -27 -16 -79 -19 -118
-4 -38 -9 -79 -12 -90 -9 -34 -57 -125 -66 -125 -4 0 -8 -7 -8 -15 0 -8 -4
-15 -9 -15 -17 0 -24 109 -12 166 7 30 16 54 19 54 4 0 12 9 17 19 21 41 97
171 99 171 2 0 -2 -21 -9 -47z m258 -375 c-13 -16 -42 -96 -46 -125 -6 -40
-15 -36 -29 11 l-14 46 -38 -35 c-21 -19 -40 -35 -42 -35 -2 0 1 12 7 28 16
41 45 68 97 87 26 10 51 22 57 26 14 13 19 11 8 -3z m-4133 -1935 c0 -9 -19
-1 -38 17 -34 32 -26 44 8 13 17 -14 30 -28 30 -30z m4071 -231 c45 -48 181
-228 214 -282 19 -32 -65 48 -106 100 -24 30 -87 98 -140 150 -81 79 -96 98
-88 113 10 16 12 16 38 -3 16 -11 53 -46 82 -78z m-141 -350 c0 -3 -25 18 -55
48 -30 30 -55 57 -55 60 0 4 25 -18 55 -47 30 -30 55 -57 55 -61z m39 -36 c-3
-3 -11 5 -18 17 -13 21 -12 21 5 5 10 -10 16 -20 13 -22z m157 -93 c21 -15 62
-39 89 -55 58 -32 38 -38 -41 -11 -62 20 -109 53 -110 76 -2 24 17 21 62 -10z"/>
<path d="M6249 7013 c0 -4 -2 -75 -3 -158 -1 -82 -6 -163 -10 -180 -14 -59
-73 -138 -165 -223 -203 -187 -245 -270 -246 -477 0 -119 8 -172 46 -291 17
-54 35 -113 40 -131 11 -38 29 -53 29 -24 0 46 73 320 101 379 38 82 100 148
205 218 135 91 178 149 208 284 31 136 10 293 -55 408 -32 57 -148 209 -150
195z"/>
<path d="M6749 5810 c-1 -8 -3 -42 -4 -75 -2 -33 -6 -73 -9 -90 -7 -33 -76
-134 -137 -200 -67 -72 -81 -89 -104 -135 -56 -111 -74 -229 -50 -320 12 -44
32 -90 44 -100 5 -4 66 -80 88 -109 7 -10 14 9 18 50 18 170 72 290 170 380
87 80 134 170 136 261 3 106 -9 143 -84 258 -60 91 -67 98 -68 80z"/>
<path d="M2095 5628 c-4 -13 -25 -59 -46 -103 -48 -98 -60 -166 -45 -235 20
-84 43 -114 166 -208 136 -103 148 -108 256 -93 14 1 2 80 -22 141 -25 64 -59
112 -102 146 -59 46 -118 107 -134 139 -9 17 -25 75 -37 130 -12 54 -23 101
-25 103 -3 2 -7 -7 -11 -20z"/>
<path d="M536 5059 c-2 -8 -29 -90 -60 -184 -31 -93 -59 -181 -62 -195 -11
-47 -13 -177 -3 -220 10 -43 37 -110 49 -120 3 -3 16 -18 28 -33 12 -16 54
-65 94 -109 86 -95 113 -131 137 -178 19 -37 19 -42 -9 -105 -22 -49 -70 -167
-70 -172 0 -1 10 6 23 16 12 10 63 53 113 95 105 87 127 125 126 221 0 108
-49 189 -235 389 -51 54 -97 108 -103 119 -8 14 -12 100 -13 251 -1 214 -4
260 -15 225z"/>
<path d="M498 2620 c-37 -10 -69 -16 -72 -13 -2 2 -7 0 -10 -5 -3 -5 37 -21
90 -36 153 -42 259 -106 283 -168 5 -13 7 -57 4 -98 -3 -57 -2 -72 7 -63 13
12 52 -19 162 -130 62 -64 90 -113 117 -209 l18 -63 23 70 c32 93 31 88 34
185 2 79 -14 223 -26 235 -3 3 -57 6 -121 8 -65 1 -117 3 -117 3 0 1 9 21 20
45 28 62 27 140 -1 158 -149 93 -274 117 -411 81z"/>
<path d="M1522 1860 c1 -74 -8 -133 -28 -172 -23 -45 4 -92 48 -80 23 6 29 26
34 117 4 73 2 85 -25 140 l-29 60 0 -65z"/>
</g>
</svg>
